<?xml version="1.0" encoding="UTF-8" standalone="no"?>
<svg
   height="23.54336"
   viewBox="0 -960 801.73431 941.73439"
   width="20.043358"
   fill="#e3e3e3"
   version="1.1"
   id="svg1"
   sodipodi:docname="water_drop_24dp_E3E3E3_FILL0_wght400_GRAD0_opsz24.svg"
   xmlns:inkscape="http://www.inkscape.org/namespaces/inkscape"
   xmlns:sodipodi="http://sodipodi.sourceforge.net/DTD/sodipodi-0.dtd"
   xmlns="http://www.w3.org/2000/svg"
   xmlns:svg="http://www.w3.org/2000/svg">
  <defs
     id="defs1" />
  <sodipodi:namedview
     id="namedview1"
     pagecolor="#ffffff"
     bordercolor="#000000"
     borderopacity="0.25"
     inkscape:showpageshadow="2"
     inkscape:pageopacity="0.0"
     inkscape:pagecheckerboard="0"
     inkscape:deskcolor="#d1d1d1">
    <inkscape:page
       x="0"
       y="0"
       width="801.73431"
       height="941.73438"
       id="page2"
       margin="0"
       bleed="0" />
  </sodipodi:namedview>
  <g
     id="g7"
     transform="translate(-1189.7852,363.3262)">
    <path
       id="path4"
       style="display:inline;fill:#ffffff"
       sodipodi:type="inkscape:offset"
       inkscape:radius="80.86776"
       inkscape:original="M 1590.6523 -1242.459 C 1583.319 -1242.459 1576.1523 -1241.2923 1569.1523 -1238.959 C 1562.1523 -1236.6257 1555.9857 -1232.7923 1550.6523 -1227.459 C 1522.6523 -1202.7923 1492.319 -1173.7923 1459.6523 -1140.459 C 1426.9857 -1107.1257 1396.6523 -1071.459 1368.6523 -1033.459 C 1340.6523 -995.45896 1317.319 -955.79232 1298.6523 -914.45898 C 1279.9857 -873.12565 1270.6523 -831.79232 1270.6523 -790.45898 C 1270.6523 -697.12565 1301.1522 -619.12565 1362.1523 -556.45898 C 1423.1523 -493.79231 1499.319 -462.45898 1590.6523 -462.45898 C 1681.9857 -462.45898 1758.1523 -493.79231 1819.1523 -556.45898 C 1880.1523 -619.12565 1910.6523 -697.12565 1910.6523 -790.45898 C 1910.6523 -831.79232 1901.319 -873.12565 1882.6523 -914.45898 C 1863.9857 -955.79232 1840.6523 -995.45896 1812.6523 -1033.459 C 1784.6523 -1071.459 1754.319 -1107.1257 1721.6523 -1140.459 C 1688.9857 -1173.7923 1658.6523 -1202.7923 1630.6523 -1227.459 C 1625.319 -1232.7923 1619.1523 -1236.6257 1612.1523 -1238.959 C 1605.1523 -1241.2923 1597.9857 -1242.459 1590.6523 -1242.459 z "
       d="m 1590.6523,-1323.3262 c -15.9104,0 -32.0354,2.6363 -47.0722,7.6485 -18.6912,6.2303 -36.4377,17.3637 -50.1094,31.0351 l 3.7246,-3.4961 c -29.8528,26.299 -61.5273,56.6175 -95.2988,91.0782 a 80.875846,80.875846 0 0 0 -0,0 c -35.3344,36.0555 -68.1352,74.6308 -98.3457,115.6308 -31.2152,42.3636 -57.5145,87.00346 -78.5976,133.68751 -22.8283,50.54843 -35.166,103.77614 -35.166,157.28321 0,110.95089 39.4232,213.36063 114.4199,290.40625 75.0708,77.12192 176.6186,118.46093 286.4472,118.46093 109.8287,0 211.3765,-41.33904 286.4473,-118.46093 74.9965,-77.04559 114.4199,-179.4553 114.4199,-290.40625 0,-53.50694 -12.3375,-106.7346 -35.166,-157.28321 -21.0831,-46.68426 -47.3824,-91.32401 -78.5976,-133.68751 -30.2105,-40.9999 -63.0131,-79.5752 -98.3477,-115.6308 -33.7715,-34.4608 -65.446,-64.7793 -95.2988,-91.0782 l 3.7246,3.4981 c -13.6723,-13.6723 -31.4184,-24.8069 -50.1094,-31.0371 -15.0365,-5.0121 -31.1618,-7.6485 -47.0723,-7.6485 z" />
    <path
       id="path1"
       style="display:inline;fill:#000000"
       d="m 1590.6526,-1242.4595 c -7.3333,0 -14.5,1.1667 -21.5,3.5 -7,2.3333 -13.1666,6.1667 -18.5,11.5 -28,24.6667 -58.3333,53.6667 -91,87 -32.6666,33.3333 -63,69 -91,107 -28,38.00002 -51.3334,77.66668 -70.0001,119.00002 -18.6666,41.33333 -28,82.66666 -28,124 0,93.33333 30.5,171.33333 91.5001,234 61,62.66667 137.1667,94 228.5,94 91.3334,0 167.5,-31.33333 228.5,-94 61,-62.66667 91.5,-140.66667 91.5,-234 0,-41.33334 -9.3333,-82.66667 -28,-124 -18.6666,-41.33334 -42,-81 -70,-119.00002 -28,-38 -58.3333,-73.6667 -91,-107 -32.6666,-33.3333 -63,-62.3333 -91,-87 -5.3333,-5.3333 -11.5,-9.1667 -18.5,-11.5 -7,-2.3333 -14.1666,-3.5 -21.5,-3.5 z"
       sodipodi:nodetypes="sscssssssssssscss" />
    <path
       id="path3"
       style="display:inline;fill:#ffffff"
       d="m 1381.3117,-744.46632 c -9.3333,0 -17,3.5 -23,10.5 -6,7 -8,15.1667 -6,24.5 11.3334,60.6667 38,104 80,130 62.3082,38.5717 129.1355,43.8648 147.5,25.5 5.6667,-5.6666 8.5,-12.5 8.5,-20.5 0,-9.3333 -3,-16.8333 -9,-22.5 -6,-5.6666 -13.6666,-8.1666 -23,-7.5 -27.3333,2 -56.3333,-5.5 -87,-22.5 -30.6666,-17 -50,-47.8333 -58,-92.5 -1.3333,-7.3333 -4.8333,-13.3333 -10.5,-18 -5.6666,-4.6666 -12.1666,-7 -19.5,-7 z"
       sodipodi:nodetypes="sscsssscscss" />
  </g>
</svg>
